<svg xmlns="http://www.w3.org/2000/svg" width="1400" height="500" viewBox="0 0 1400 500">
<rect width="1400" height="500" fill="#f8fafc"/>
<text x="55" y="52" font-family="Arial,'Microsoft YaHei',sans-serif" font-size="30" font-weight="700" fill="#0f172a">从黑盒输出到关系感知的开发</text>
<g font-family="Arial,'Microsoft YaHei',sans-serif" text-anchor="middle">
<rect x="60" y="105" width="570" height="300" rx="18" fill="#fff1f2" stroke="#e11d48" stroke-width="3"/>
<text x="345" y="145" font-size="25" font-weight="700" fill="#9f1239">传统 / Vibe Coding</text>
<rect x="120" y="190" width="150" height="62" rx="12" fill="#ffe4e6" stroke="#fb7185" stroke-width="2"/><text x="195" y="228" font-size="20" fill="#9f1239">一句需求</text>
<rect x="330" y="190" width="180" height="62" rx="12" fill="#ffe4e6" stroke="#fb7185" stroke-width="2"/><text x="420" y="228" font-size="20" fill="#9f1239">AI 改几个文件</text>
<path d="M270 221h60" stroke="#be123c" stroke-width="4"/><path d="M320 211l12 10-12 10z" fill="#be123c"/>
<text x="345" y="305" font-size="20" fill="#9f1239">看不到业务关系</text><text x="345" y="340" font-size="18" fill="#9f1239">为什么这样改？影响谁？是否仍符合需求？</text>
<rect x="770" y="105" width="570" height="300" rx="18" fill="#ecfdf5" stroke="#059669" stroke-width="3"/>
<text x="1055" y="145" font-size="25" font-weight="700" fill="#065f46">Graph-aware Coding</text>
<rect x="815" y="190" width="130" height="62" rx="12" fill="#d1fae5" stroke="#34d399" stroke-width="2"/><text x="880" y="228" font-size="19" fill="#065f46">业务需求</text>
<rect x="980" y="190" width="130" height="62" rx="12" fill="#d1fae5" stroke="#34d399" stroke-width="2"/><text x="1045" y="228" font-size="19" fill="#065f46">业务地图</text>
<rect x="1145" y="190" width="130" height="62" rx="12" fill="#d1fae5" stroke="#34d399" stroke-width="2"/><text x="1210" y="228" font-size="19" fill="#065f46">代码地图</text>
<path d="M945 221h35M1110 221h35" stroke="#047857" stroke-width="4"/><path d="M970 211l12 10-12 10zM1135 211l12 10-12 10z" fill="#047857"/>
<text x="1055" y="305" font-size="20" fill="#065f46">沿关系定位影响面</text><text x="1055" y="340" font-size="18" fill="#065f46">规则约束 → 实现 → 验证 → 知识回流</text>
</g></svg>
